{"extensionsUsed" : ["KHR_materials_pbrSpecularGlossiness"], "accessors" : [{"bufferView" : 0, "byteOffset" : 0, "componentType" : 5123, "count" : 62484, "type" : "SCALAR", "max" : [12177], "min" : [0]}, {"bufferView" : 1, "byteOffset" : 0, "componentType" : 5126, "count" : 12178, "type" : "VEC3", "max" : [1.1956981420517, 4.44114398956299, 2.12072539329529], "min" : [-1.19566833972931, -0.000615239143371582, -3.35551691055298]}, {"bufferView" : 1, "byteOffset" : 12, "componentType" : 5126, "count" : 12178, "type" : "VEC3", "max" : [0.999873042106628, 1.00000095367432, 0.99998265504837], "min" : [-0.999872922897339, -0.999996185302734, -0.999302268028259]}, {"bufferView" : 1, "byteOffset" : 24, "componentType" : 5126, "count" : 12178, "type" : "VEC2", "max" : [0.990365386009216, 0.990844964981079], "min" : [0.00976533070206642, 0.0144884586334229]}], "asset" : {"generator" : "Aspose.3D 20.2.1", "version" : "2.0"}, "buffers" : [{"uri" : "buffer.bin", "byteLength" : 23539920}], "bufferViews" : [{"buffer" : 0, "byteOffset" : 0, "byteLength" : 124968, "target" : 34963}, {"buffer" : 0, "byteOffset" : 124972, "byteLength" : 389696, "byteStride" : 32, "target" : 34962}, {"buffer" : 0, "byteOffset" : 514672, "byteLength" : 6921497}, {"buffer" : 0, "byteOffset" : 7436172, "byteLength" : 5703109}, {"buffer" : 0, "byteOffset" : 13139284, "byteLength" : 6974439}, {"buffer" : 0, "byteOffset" : 20113724, "byteLength" : 3426195}], "images" : [{"mimeType" : "image/png", "bufferView" : 2}, {"mimeType" : "image/png", "bufferView" : 3}, {"mimeType" : "image/png", "bufferView" : 4}, {"mimeType" : "image/png", "bufferView" : 5}], "materials" : [{"extensions" : {"KHR_materials_pbrSpecularGlossiness" : {"diffuseFactor" : [1, 1, 1, 1], "diffuseTexture" : {"index" : 0, "texCoord" : 0}, "specularFactor" : [1, 1, 1], "glossinessFactor" : 1, "specularGlossinessTexture" : {"index" : 1, "texCoord" : 0, "scale" : 1}}}, "pbrMetallicRoughness" : {"baseColorFactor" : [1, 1, 1, 1], "baseColorTexture" : {"index" : 2, "texCoord" : 0}, "metallicFactor" : 1, "roughnessFactor" : 1, "metallicRoughnessTexture" : {"index" : 3, "texCoord" : 0}}, "emissiveFactor" : [0, 0, 0], "alphaMode" : "OPAQUE", "doubleSided" : true}], "meshes" : [{"primitives" : [{"attributes" : {"POSITION" : 1, "NORMAL" : 2, "TEXCOORD_0" : 3}, "indices" : 0, "material" : 0, "mode" : 4}]}], "nodes" : [{"matrix" : [0.115269653499126, 0, 0, 0, 0, 0.115269653499126, 0, 0, 0, 0, 0.115269653499126, 0, -0.174493372440338, -0.0633843690156937, 0.44507884979248, 1], "mesh" : 0, "name" : "node_id70"}, {"children" : [0], "name" : "root"}], "samplers" : [{"magFilter" : 9728, "minFilter" : 9985, "wrapS" : 10497, "wrapT" : 10497}, {"magFilter" : 9728, "minFilter" : 9985, "wrapS" : 10497, "wrapT" : 10497}, {"magFilter" : 9728, "minFilter" : 9985, "wrapS" : 10497, "wrapT" : 10497}, {"magFilter" : 9728, "minFilter" : 9985, "wrapS" : 10497, "wrapT" : 10497}], "scene" : 0, "scenes" : [{"nodes" : [1]}], "textures" : [{"sampler" : 0, "source" : 0}, {"sampler" : 1, "source" : 1}, {"sampler" : 2, "source" : 2}, {"sampler" : 3, "source" : 3}]}