{"extensionsUsed" : ["KHR_materials_pbrSpecularGlossiness"], "accessors" : [{"bufferView" : 0, "byteOffset" : 0, "componentType" : 5123, "count" : 20172, "type" : "SCALAR", "max" : [3957], "min" : [0]}, {"bufferView" : 1, "byteOffset" : 0, "componentType" : 5126, "count" : 3958, "type" : "VEC3", "max" : [6.02405405044556, 5.07919120788574, 3.86799550056458], "min" : [-6.04210996627808, 0.0090411901473999, -5.0363245010376]}, {"bufferView" : 1, "byteOffset" : 12, "componentType" : 5126, "count" : 3958, "type" : "VEC3", "max" : [0.999993860721588, 0.999903738498688, 0.998971045017242], "min" : [-0.99999326467514, -0.999850869178772, -0.999996423721313]}, {"bufferView" : 1, "byteOffset" : 24, "componentType" : 5126, "count" : 3958, "type" : "VEC2", "max" : [0.993549108505249, 0.994862675666809], "min" : [0.00513345003128052, 0.0117080807685852]}], "asset" : {"generator" : "Aspose.3D 20.2.1", "version" : "2.0"}, "buffers" : [{"uri" : "buffer.bin", "byteLength" : 9564516}], "bufferViews" : [{"buffer" : 0, "byteOffset" : 0, "byteLength" : 40344, "target" : 34963}, {"buffer" : 0, "byteOffset" : 40348, "byteLength" : 126656, "byteStride" : 32, "target" : 34962}, {"buffer" : 0, "byteOffset" : 167008, "byteLength" : 4473365}, {"buffer" : 0, "byteOffset" : 4640376, "byteLength" : 212252}, {"buffer" : 0, "byteOffset" : 4852632, "byteLength" : 4465284}, {"buffer" : 0, "byteOffset" : 9317920, "byteLength" : 246594}], "images" : [{"mimeType" : "image/png", "bufferView" : 2}, {"mimeType" : "image/png", "bufferView" : 3}, {"mimeType" : "image/png", "bufferView" : 4}, {"mimeType" : "image/png", "bufferView" : 5}], "materials" : [{"extensions" : {"KHR_materials_pbrSpecularGlossiness" : {"diffuseFactor" : [1, 1, 1, 1], "diffuseTexture" : {"index" : 0, "texCoord" : 0}, "specularFactor" : [1, 1, 1], "glossinessFactor" : 1, "specularGlossinessTexture" : {"index" : 1, "texCoord" : 0, "scale" : 1}}}, "pbrMetallicRoughness" : {"baseColorFactor" : [1, 1, 1, 1], "baseColorTexture" : {"index" : 2, "texCoord" : 0}, "metallicFactor" : 1, "roughnessFactor" : 1, "metallicRoughnessTexture" : {"index" : 3, "texCoord" : 0}}, "emissiveFactor" : [0, 0, 0], "alphaMode" : "OPAQUE", "doubleSided" : true}], "meshes" : [{"primitives" : [{"attributes" : {"POSITION" : 1, "NORMAL" : 2, "TEXCOORD_0" : 3}, "indices" : 0, "material" : 0, "mode" : 4}]}], "nodes" : [{"matrix" : [0.0424327105283737, 0, 0, 0, 0, 0.0414124857625038, -0.00924885160374647, 0, 0, 0.00924885160374647, 0.0414124857625038, 0, -0.0868740081787109, 0.00920241605490446, 0.257999211549759, 1], "mesh" : 0, "name" : "node_id30"}, {"children" : [0], "name" : "root"}], "samplers" : [{"magFilter" : 9728, "minFilter" : 9985, "wrapS" : 10497, "wrapT" : 10497}, {"magFilter" : 9728, "minFilter" : 9985, "wrapS" : 10497, "wrapT" : 10497}, {"magFilter" : 9728, "minFilter" : 9985, "wrapS" : 10497, "wrapT" : 10497}, {"magFilter" : 9728, "minFilter" : 9985, "wrapS" : 10497, "wrapT" : 10497}], "scene" : 0, "scenes" : [{"nodes" : [1]}], "textures" : [{"sampler" : 0, "source" : 0}, {"sampler" : 1, "source" : 1}, {"sampler" : 2, "source" : 2}, {"sampler" : 3, "source" : 3}]}